# This file uses centimeters as units for non-parametric coordinates.

v -0.611130 0.537809 0.278267
v 0.421089 0.437268 0.381042
v -0.588322 0.738374 0.065361
v 0.311508 0.665305 0.143944
v -0.599361 0.797397 -0.299324
v 0.321850 0.711495 -0.146439
v -0.590931 0.556285 -0.399292
v 0.350571 0.456449 -0.200500
v -0.005112 0.929057 -0.417740
v -0.251919 0.853867 0.291397
v -0.292316 0.512665 0.625679
v 0.061043 0.506397 -0.629097
v -0.020779 1.119787 -0.222221
v -0.213234 1.082159 0.162292
v 0.278858 0.987157 0.111168
v 0.248539 1.022462 -0.091675
v -0.360031 0.974260 0.096725
v -0.352833 1.019711 -0.144432
v -0.708855 0.266569 0.435158
v -0.324654 0.253094 0.763931
v -0.711849 0.260502 -0.480751
v 0.176170 0.251876 -0.763924
v 0.701775 0.211461 -0.365288
v 0.775372 0.212052 0.446953
v -0.803173 0.013546 0.415771
v -0.303501 0.004883 0.729889
v -0.808601 0.011236 -0.459328
v 0.166561 0.004883 -0.729881
v 0.757133 0.003927 -0.349014
v 0.808598 0.003739 0.427040
v -0.559769 -0.149398 0.289772
v -0.211525 -0.155436 0.508698
v -0.563553 -0.151008 -0.320129
v 0.116085 -0.155436 -0.508690
v 0.527683 -0.156102 -0.243240
v 0.563549 -0.156233 0.297623
vt 0.443692 0.326552
vt 0.443692 0.326552
vt 0.443692 0.326552
vt 0.443692 0.326552
vt 0.443692 0.326552
vt 0.443692 0.326552
vt 0.443692 0.326552
vt 0.443692 0.326552
vt 0.443692 0.326552
vt 0.443692 0.326552
vt 0.443692 0.326552
vt 0.443692 0.326552
vt 0.443692 0.326552
vt 0.443692 0.326552
vt 0.443692 0.326552
vt 0.443692 0.326552
vt 0.443692 0.326552
vt 0.443692 0.326552
vt 0.443692 0.326552
vt 0.443692 0.326552
vt 0.443692 0.326552
vt 0.443692 0.326552
vt 0.443692 0.326552
vt 0.443692 0.326552
vt 0.443692 0.326552
vt 0.443692 0.326552
vt 0.443692 0.326552
vt 0.443692 0.326552
vt 0.443692 0.326552
vt 0.443692 0.326552
vt 0.443692 0.326552
vt 0.443692 0.326552
vt 0.443692 0.326552
vt 0.443692 0.326552
vt 0.443692 0.326552
vt 0.443692 0.326552
vt 0.443692 0.326552
vt 0.443692 0.326552
vt 0.443692 0.326552
vt 0.443692 0.326552
vt 0.443692 0.326552
vt 0.443692 0.326552
vt 0.443692 0.326552
vt 0.443692 0.326552
vt 0.443692 0.326552
vt 0.443692 0.326552
vt 0.443692 0.326552
vt 0.443692 0.326552
vt 0.443692 0.326552
vt 0.443692 0.326552
vt 0.443692 0.326552
vt 0.443692 0.326552
vt 0.443692 0.326552
vt 0.443692 0.326552
vt 0.443692 0.326552
vt 0.443692 0.326552
vt 0.443692 0.326552
vt 0.443692 0.326552
vn 0.339385 0.686612 0.642948
vn 0.339385 0.686612 0.642948
vn 0.339385 0.686612 0.642948
vn 0.339385 0.686612 0.642948
vn 0.223135 0.957923 0.180538
vn 0.223135 0.957923 0.180538
vn 0.223135 0.957923 0.180538
vn 0.223135 0.957923 0.180538
vn 0.767926 0.323920 -0.552599
vn 0.767926 0.323920 -0.552599
vn 0.767926 0.323920 -0.552599
vn 0.767926 0.323920 -0.552599
vn 0.964899 0.258340 -0.047223
vn 0.964899 0.258340 -0.047223
vn 0.964899 0.258340 -0.047223
vn 0.964899 0.258340 -0.047223
vn -0.999503 0.030865 -0.006488
vn -0.999503 0.030865 -0.006488
vn -0.999503 0.030865 -0.006488
vn -0.999503 0.030865 -0.006488
vn -0.398478 0.917162 -0.005374
vn -0.398478 0.917162 -0.005374
vn -0.398478 0.917162 -0.005374
vn -0.398478 0.917162 -0.005374
vn -0.564131 0.618402 0.547115
vn -0.564131 0.618402 0.547115
vn -0.564131 0.618402 0.547115
vn -0.564131 0.618402 0.547115
vn -0.271804 0.383449 -0.882660
vn -0.271804 0.383449 -0.882660
vn -0.271804 0.383449 -0.882660
vn -0.271804 0.383449 -0.882660
vn 0.247780 0.270971 0.930150
vn 0.247780 0.270971 0.930150
vn 0.247780 0.270971 0.930150
vn 0.247780 0.270971 0.930150
vn 0.986121 0.165553 -0.012588
vn 0.986121 0.165553 -0.012588
vn 0.986121 0.165553 -0.012588
vn 0.986121 0.165553 -0.012588
vn 0.649545 0.428532 -0.628054
vn 0.649545 0.428532 -0.628054
vn 0.649545 0.428532 -0.628054
vn 0.649545 0.428532 -0.628054
vn -0.622130 0.462625 0.631611
vn -0.622130 0.462625 0.631611
vn -0.622130 0.462625 0.631611
vn -0.353833 0.655170 -0.667499
vn -0.353833 0.655170 -0.667499
vn -0.353833 0.655170 -0.667499
vn -0.713729 0.689463 0.123419
vn -0.713729 0.689463 0.123419
vn -0.713729 0.689463 0.123419
vn -0.713729 0.689463 0.123419
vn -0.586509 0.498613 0.638273
vn -0.586509 0.498613 0.638273
vn -0.586509 0.498613 0.638273
vn -0.586509 0.498613 0.638273
vn -0.283531 0.353365 -0.891484
vn -0.283531 0.353365 -0.891484
vn -0.283531 0.353365 -0.891484
vn -0.283531 0.353365 -0.891484
vn -0.933343 0.358912 -0.007282
vn -0.933343 0.358912 -0.007282
vn -0.933343 0.358912 -0.007282
vn -0.933343 0.358912 -0.007282
vn 0.549590 0.834184 -0.045699
vn 0.549590 0.834184 -0.045699
vn 0.549590 0.834184 -0.045699
vn 0.549590 0.834184 -0.045699
vn 0.282298 0.525486 0.802603
vn 0.282298 0.525486 0.802603
vn 0.282298 0.525486 0.802603
vn 0.282298 0.525486 0.802604
vn 0.517444 0.740410 -0.429005
vn 0.517444 0.740410 -0.429005
vn 0.517444 0.740410 -0.429005
vn 0.517444 0.740410 -0.429005
vn -0.005455 -0.999985 -0.000653
vn -0.005455 -0.999985 -0.000653
vn -0.005455 -0.999985 -0.000653
vn -0.005455 -0.999985 -0.000653
vn -0.005455 -0.999985 -0.000653
vn -0.005455 -0.999985 -0.000653
vn -0.588226 -0.000340 0.808697
vn -0.588226 -0.000340 0.808697
vn -0.588226 -0.000340 0.808697
vn -0.588226 -0.000340 0.808697
vn -0.934649 0.355561 0.002733
vn -0.934649 0.355561 0.002733
vn -0.934649 0.355561 0.002733
vn -0.934649 0.355561 0.002733
vn -0.284923 -0.045941 -0.957449
vn -0.284923 -0.045941 -0.957449
vn -0.284923 -0.045941 -0.957449
vn -0.284923 -0.045941 -0.957449
vn 0.571421 -0.033262 -0.819983
vn 0.571421 -0.033262 -0.819982
vn 0.571421 -0.033262 -0.819983
vn 0.571421 -0.033262 -0.819982
vn 0.975023 0.208392 -0.076826
vn 0.975023 0.208392 -0.076826
vn 0.975023 0.208392 -0.076826
vn 0.975023 0.208392 -0.076826
vn 0.267457 -0.081612 0.960107
vn 0.267457 -0.081612 0.960107
vn 0.267457 -0.081612 0.960107
vn 0.267457 -0.081612 0.960107
vn -0.285321 0.740417 -0.608584
vn -0.285321 0.740417 -0.608584
vn -0.285321 0.740417 -0.608584
vn -0.595593 0.491966 0.635010
vn -0.595593 0.491966 0.635010
vn -0.595593 0.491966 0.635010
vn -0.309879 -0.826413 0.470124
vn -0.309879 -0.826413 0.470124
vn -0.309879 -0.826413 0.470124
vn -0.309879 -0.826413 0.470124
vn -0.554266 -0.832321 0.005635
vn -0.554266 -0.832321 0.005635
vn -0.554266 -0.832321 0.005635
vn -0.554266 -0.832321 0.005635
vn -0.172530 -0.778422 -0.603567
vn -0.172530 -0.778422 -0.603567
vn -0.172530 -0.778422 -0.603567
vn -0.172530 -0.778422 -0.603567
vn 0.324630 -0.799503 -0.505382
vn 0.324630 -0.799503 -0.505382
vn 0.324630 -0.799503 -0.505382
vn 0.324630 -0.799503 -0.505382
vn 0.560023 -0.827635 -0.037337
vn 0.560023 -0.827635 -0.037337
vn 0.560023 -0.827635 -0.037337
vn 0.560023 -0.827635 -0.037337
vn 0.169012 -0.763320 0.623520
vn 0.169012 -0.763320 0.623520
vn 0.169012 -0.763320 0.623520
vn 0.169012 -0.763320 0.623520
s off
f 10/14/1 11/15/2 2/2/3 4/4/4
f 13/20/5 14/17/6 15/18/7 16/19/8
f 12/16/9 9/13/10 6/6/11 8/8/12
f 2/2/13 8/9/14 6/10/15 4/4/16
f 7/11/17 1/1/18 3/3/19 5/12/20
f 17/21/21 14/17/22 13/20/23 18/22/24
f 1/1/25 11/15/26 10/14/27 3/3/28
f 5/5/29 9/13/30 12/16/31 7/7/32
f 10/14/33 4/4/34 15/18/35 14/17/36
f 4/4/37 6/6/38 16/19/39 15/18/40
f 6/6/41 9/13/42 13/20/43 16/19/44
f 17/21/45 10/14/46 14/17/47
f 9/13/48 18/22/49 13/20/50
f 5/5/51 3/3/52 17/21/53 18/22/54
f 11/23/55 1/24/56 19/25/57 20/26/58
f 7/27/59 12/28/60 22/29/61 21/30/62
f 1/31/63 7/32/64 21/33/65 19/34/66
f 8/35/67 2/36/68 24/37/69 23/38/70
f 2/39/71 11/40/72 20/41/73 24/42/74
f 12/43/75 8/44/76 23/45/77 22/46/78
f 32/53/79 31/54/80 33/55/81 34/56/82 35/57/83 36/58/84
f 20/26/85 19/34/86 25/48/87 26/47/88
f 19/34/89 21/30/90 27/49/91 25/48/92
f 21/30/93 22/46/94 28/50/95 27/49/96
f 22/46/97 23/38/98 29/51/99 28/50/100
f 23/38/101 24/42/102 30/52/103 29/51/104
f 24/42/105 20/26/106 26/47/107 30/52/108
f 9/13/109 5/5/110 18/22/111
f 3/3/112 10/14/113 17/21/114
f 26/47/115 25/48/116 31/54/117 32/53/118
f 25/48/119 27/49/120 33/55/121 31/54/122
f 27/49/123 28/50/124 34/56/125 33/55/126
f 28/50/127 29/51/128 35/57/129 34/56/130
f 29/51/131 30/52/132 36/58/133 35/57/134
f 30/52/135 26/47/136 32/53/137 36/58/138
