# Blender v2.83.1 OBJ File: ''
# www.blender.org
mtllib chair_1.mtl
o chair_1
v 14.781003 -15.547555 0.000003
v 13.392072 -14.078519 4.000688
v 0.081450 -19.210817 4.000686
v 0.081451 -21.215059 0.000003
v -13.229175 -14.078527 4.000688
v -14.618106 -15.547757 0.000003
v 0.081438 19.210815 4.000679
v 13.392062 14.078526 4.000683
v 14.780993 15.547566 -0.000003
v 0.081437 21.215057 -0.000003
v -14.618115 15.547557 -0.000003
v -13.229184 14.078518 4.000683
v 19.292259 0.000007 4.000683
v 21.296501 0.000007 0.000000
v -19.129372 -0.000006 4.000683
v -21.133614 -0.000007 -0.000000
v 6.396296 -6.314847 5.219885
v 0.081447 -8.419799 5.219885
v -6.233213 -6.314851 5.219885
v 6.396292 6.314853 5.219883
v 8.501244 0.000004 5.219884
v -6.233217 6.314849 5.219883
v 0.081441 8.419801 5.219882
v -8.338165 -0.000002 5.219884
v -2.956582 3.038026 11.050142
v 0.081443 4.050448 11.050142
v 3.119468 3.038028 11.050142
v -2.956580 -3.038024 11.050144
v -3.969193 0.000001 11.050143
v 3.119470 -3.038022 11.050144
v 0.081445 -4.050825 11.050144
v 4.132271 0.000003 11.050143
v 1.767348 3.026011 11.050143
v -1.767350 3.026010 11.050143
v -1.767350 3.026017 54.159466
v 1.767348 3.026018 54.159466
v -3.534698 -0.035094 11.050144
v -3.534698 -0.035087 54.159466
v -1.767348 -3.096198 11.050145
v -1.767348 -3.096191 54.159466
v 1.767350 -3.096197 11.050145
v 1.767350 -3.096190 54.159466
v 3.534698 -0.035092 11.050144
v 3.534698 -0.035085 54.159466
v 6.118774 -0.035084 54.159466
v 3.059389 -5.334081 54.159466
v -3.059385 -5.334084 54.159466
v -6.118774 -0.035088 54.159466
v -3.059389 5.263909 54.159466
v 3.059385 5.263911 54.159466
v 6.118774 -0.035084 56.529213
v 3.059389 -5.334081 56.529213
v -3.059385 -5.334083 56.529213
v -6.118774 -0.035088 56.529213
v -3.059389 5.263909 56.529213
v 3.059385 5.263911 56.529213
v -16.472811 -16.508095 63.654507
v -16.472811 -16.508097 56.286491
v 16.473204 -16.508085 56.286491
v 16.473204 -16.508085 63.654507
v 16.473192 16.437737 63.654499
v -16.472822 16.437727 63.654499
v -16.472822 16.437725 56.286484
v 16.473192 16.437737 56.286484
v -16.472807 -28.900328 92.673851
v 16.473207 -28.900316 92.673851
v 16.473206 -21.827293 94.737701
v -16.472809 -21.827305 94.737701
v 16.473204 -14.996893 71.328537
v -16.472811 -14.996903 71.328537
v 16.473206 -22.069912 69.264671
v -16.472809 -22.069923 69.264671
v -27.631563 -16.508097 74.057526
v -16.472811 -16.508093 74.057526
v -16.472811 -16.508093 78.564369
v -27.631563 -16.508097 78.564369
v -16.472822 16.437729 78.564369
v -27.631575 16.437725 78.564369
v -16.472822 16.437729 74.057526
v -27.631575 16.437725 74.057526
v 16.473204 -16.508083 74.057526
v 27.631575 -16.508080 74.057526
v 27.631575 -16.508080 78.564369
v 16.473204 -16.508081 78.564369
v 27.631563 16.437742 78.564369
v 16.473192 16.437740 78.564369
v 27.631563 16.437742 74.057526
v 16.473192 16.437738 74.057526
v 8.275799 -12.366855 59.557812
v 5.295376 -12.366856 59.557812
v 5.295378 -17.993530 76.618958
v 8.275801 -17.993528 76.618958
v 3.805356 -14.826571 58.775188
v 3.805358 -20.453058 75.836334
v 5.295378 -17.286098 57.992603
v 5.295380 -22.912394 75.053726
v 8.275801 -17.286098 57.992603
v 8.275803 -22.912392 75.053726
v 9.765821 -14.826570 58.775188
v 9.765822 -20.453056 75.836334
v -5.615803 -12.366859 59.557812
v -8.595844 -12.366860 59.557812
v -8.595842 -17.993534 76.618958
v -5.615801 -17.993532 76.618958
v -10.086246 -14.826575 58.775188
v -10.086244 -20.453062 75.836334
v -8.595842 -17.286104 57.992603
v -8.595840 -22.912397 75.053726
v -5.615801 -17.286102 57.992603
v -5.615799 -22.912397 75.053726
v -4.125399 -14.826573 58.775188
v -4.125397 -20.453060 75.836334
v -14.646337 -8.562274 59.067474
v -14.646338 -5.582042 59.067474
v -20.272635 -5.582041 76.128624
v -20.272635 -8.562273 76.128624
v -17.105673 -4.091831 58.284855
v -22.732351 -4.091830 75.346016
v -19.565390 -5.582044 57.502266
v -25.191687 -5.582043 74.563400
v -19.565390 -8.562276 57.502266
v -25.191687 -8.562275 74.563400
v -17.105671 -10.052486 58.284855
v -22.732349 -10.052485 75.346016
v -14.646341 5.328946 59.067474
v -14.646342 8.309369 59.067474
v -20.272638 8.309370 76.128624
v -20.272638 5.328947 76.128624
v -17.105679 9.799580 58.284855
v -22.732357 9.799581 75.346016
v -19.565393 8.309367 57.502266
v -25.191690 8.309368 74.563400
v -19.565393 5.328944 57.502266
v -25.191690 5.328945 74.563400
v -17.105677 3.838925 58.284855
v -22.732355 3.838926 75.346016
v 14.646342 -8.562264 59.067474
v 20.272638 -8.562260 76.128624
v 20.272638 -5.582028 76.128624
v 14.646341 -5.582033 59.067474
v 22.732355 -4.091815 75.346016
v 17.105677 -4.091820 58.284855
v 25.191690 -5.582026 74.563400
v 19.565393 -5.582031 57.502266
v 25.191690 -8.562259 74.563400
v 19.565393 -8.562263 57.502266
v 22.732357 -10.052470 75.346016
v 17.105679 -10.052475 58.284855
v 14.646338 5.328955 59.067474
v 20.272635 5.328960 76.128624
v 20.272635 8.309383 76.128624
v 14.646337 8.309379 59.067474
v 22.732349 9.799596 75.346016
v 17.105671 9.799591 58.284855
v 25.191687 8.309384 74.563400
v 19.565390 8.309381 57.502266
v 25.191687 5.328961 74.563400
v 19.565390 5.328957 57.502266
v 22.732351 3.838941 75.346016
v 17.105673 3.838936 58.284855
vt 0.245393 0.301419
vt 0.245434 0.301521
vt 0.245248 0.301850
vt 0.245187 0.301782
vt 0.245370 0.302199
vt 0.245322 0.302168
vt 0.246402 0.301928
vt 0.246280 0.301579
vt 0.246327 0.301483
vt 0.246462 0.301869
vt 0.246256 0.302231
vt 0.246216 0.302257
vt 0.245871 0.301400
vt 0.245876 0.301285
vt 0.245778 0.302378
vt 0.245773 0.302365
vt 0.245650 0.301735
vt 0.245572 0.301891
vt 0.245620 0.302056
vt 0.246030 0.301761
vt 0.245845 0.301694
vt 0.245999 0.302082
vt 0.246078 0.301926
vt 0.245804 0.302123
vt 0.245909 0.302085
vt 0.245946 0.302010
vt 0.245923 0.301931
vt 0.245726 0.302073
vt 0.245815 0.302105
vt 0.245741 0.301918
vt 0.245703 0.301994
vt 0.245835 0.301899
vt 0.235785 0.251253
vt 0.235652 0.251240
vt 0.235652 0.253344
vt 0.235785 0.253358
vt 0.235681 0.251219
vt 0.235681 0.253324
vt 0.235844 0.251212
vt 0.235844 0.253316
vt 0.235978 0.251226
vt 0.235978 0.253330
vt 0.235948 0.251246
vt 0.235948 0.253350
vt 0.236046 0.253360
vt 0.236097 0.253324
vt 0.235866 0.253301
vt 0.235583 0.253314
vt 0.235532 0.253350
vt 0.235763 0.253373
vt 0.236046 0.253476
vt 0.236097 0.253440
vt 0.235866 0.253417
vt 0.235583 0.253429
vt 0.235532 0.253465
vt 0.235763 0.253489
vt 0.245289 0.303231
vt 0.245289 0.303113
vt 0.245368 0.302275
vt 0.245368 0.302392
vt 0.246358 0.302460
vt 0.246279 0.303299
vt 0.246279 0.303181
vt 0.246358 0.302342
vt 0.244916 0.303670
vt 0.244996 0.302831
vt 0.245209 0.302879
vt 0.245129 0.303718
vt 0.245414 0.302518
vt 0.245334 0.303357
vt 0.245201 0.302471
vt 0.245122 0.303310
vt 0.245262 0.303682
vt 0.245289 0.303398
vt 0.245289 0.303470
vt 0.245262 0.303754
vt 0.246279 0.303537
vt 0.246252 0.303821
vt 0.246279 0.303465
vt 0.246252 0.303749
vt 0.245368 0.302559
vt 0.245395 0.302275
vt 0.245395 0.302347
vt 0.245368 0.302631
vt 0.246385 0.302414
vt 0.246358 0.302698
vt 0.246385 0.302342
vt 0.246358 0.302626
vt 0.236515 0.253576
vt 0.236403 0.253564
vt 0.236580 0.254371
vt 0.236692 0.254383
vt 0.236424 0.253509
vt 0.236601 0.254316
vt 0.236558 0.253466
vt 0.236735 0.254273
vt 0.236670 0.253477
vt 0.236847 0.254284
vt 0.236649 0.253532
vt 0.236826 0.254339
vt 0.235991 0.253523
vt 0.235878 0.253512
vt 0.236055 0.254319
vt 0.236168 0.254330
vt 0.235899 0.253456
vt 0.236076 0.254264
vt 0.236033 0.253413
vt 0.236210 0.254220
vt 0.236145 0.253424
vt 0.236323 0.254231
vt 0.236124 0.253479
vt 0.236301 0.254286
vt 0.235530 0.253482
vt 0.235436 0.253496
vt 0.235223 0.254307
vt 0.235317 0.254293
vt 0.235296 0.253455
vt 0.235084 0.254266
vt 0.235250 0.253400
vt 0.235038 0.254212
vt 0.235344 0.253387
vt 0.235131 0.254198
vt 0.235484 0.253428
vt 0.235271 0.254239
vt 0.235092 0.253545
vt 0.234999 0.253559
vt 0.234786 0.254370
vt 0.234880 0.254357
vt 0.234859 0.253518
vt 0.234646 0.254330
vt 0.234813 0.253464
vt 0.234600 0.254275
vt 0.234907 0.253450
vt 0.234694 0.254262
vt 0.235046 0.253491
vt 0.234834 0.254302
vt 0.236636 0.253593
vt 0.236849 0.254447
vt 0.236755 0.254461
vt 0.236543 0.253607
vt 0.236801 0.254439
vt 0.236589 0.253585
vt 0.236941 0.254403
vt 0.236728 0.253549
vt 0.237035 0.254390
vt 0.236822 0.253536
vt 0.236989 0.254412
vt 0.236776 0.253558
vt 0.236199 0.253657
vt 0.236412 0.254511
vt 0.236318 0.254524
vt 0.236105 0.253670
vt 0.236364 0.254502
vt 0.236151 0.253648
vt 0.236504 0.254467
vt 0.236291 0.253613
vt 0.236597 0.254453
vt 0.236385 0.253599
vt 0.236551 0.254475
vt 0.236339 0.253621
vn 0.3259 -0.8453 0.4235
vn -0.3259 -0.8452 0.4235
vn 0.3259 0.8453 0.4235
vn -0.3259 0.8453 0.4235
vn 0.8372 0.3509 0.4195
vn 0.8372 -0.3509 0.4195
vn -0.8372 -0.3509 0.4195
vn -0.8372 0.3509 0.4195
vn 0.0422 -0.1145 0.9925
vn -0.0422 -0.1145 0.9925
vn 0.1161 0.0456 0.9922
vn 0.1161 -0.0456 0.9922
vn -0.0422 0.1145 0.9925
vn 0.0422 0.1145 0.9925
vn -0.1161 -0.0456 0.9922
vn -0.1161 0.0456 0.9922
vn -0.2577 0.7732 0.5794
vn 0.2577 0.7732 0.5794
vn -0.7732 -0.2577 0.5794
vn -0.7732 0.2577 0.5794
vn 0.2577 -0.7732 0.5794
vn -0.2577 -0.7732 0.5794
vn 0.7732 0.2577 0.5794
vn 0.7732 -0.2577 0.5794
vn -0.0000 0.0000 1.0000
vn 0.0000 -0.0000 -1.0000
vn -0.0000 1.0000 -0.0000
vn -0.8660 0.5000 -0.0000
vn -0.8660 -0.5000 0.0000
vn 0.0000 -1.0000 0.0000
vn 0.8660 -0.5000 0.0000
vn 0.8660 0.5000 -0.0000
vn 1.0000 0.0000 0.0000
vn -1.0000 -0.0000 0.0000
vn 0.0000 -0.2801 0.9600
vn -0.0000 0.9600 0.2801
vn -0.0000 0.2801 -0.9600
vn 0.0000 -0.9600 -0.2801
vn -0.0000 0.9497 0.3132
vn -0.8660 0.4748 0.1566
vn -0.8660 -0.4748 -0.1566
vn 0.0000 -0.9497 -0.3132
vn 0.8660 -0.4748 -0.1566
vn 0.8660 0.4748 0.1566
vn -0.0000 0.3032 -0.9529
vn -0.8660 0.4749 0.1566
vn -0.8660 -0.4749 -0.1566
vn 0.8660 -0.4749 -0.1566
vn 0.8660 0.4749 0.1566
vn 0.9497 0.0000 0.3132
vn 0.4749 0.8660 0.1566
vn -0.4749 0.8660 -0.1566
vn -0.9497 0.0000 -0.3132
vn -0.4749 -0.8660 -0.1566
vn 0.4749 -0.8660 0.1566
vn 0.3032 0.0000 -0.9529
vn -0.4748 -0.8660 -0.1566
vn 0.4748 -0.8660 0.1566
vn -0.9497 0.0000 0.3132
vn -0.4749 0.8660 0.1566
vn 0.4749 0.8660 -0.1566
vn 0.9497 0.0000 -0.3132
vn 0.4749 -0.8660 -0.1566
vn -0.4749 -0.8660 0.1566
vn -0.3032 -0.0000 -0.9529
vn 0.4748 -0.8660 -0.1566
vn -0.4748 -0.8660 0.1566
usemtl Default_OBJ
s off
f 1/1/1 2/2/1 3/3/1 4/4/1
f 3/3/2 5/5/2 6/6/2 4/4/2
f 7/7/3 8/8/3 9/9/3 10/10/3
f 11/11/4 12/12/4 7/7/4 10/10/4
f 9/9/5 8/8/5 13/13/5 14/14/5
f 13/13/6 2/2/6 1/1/6 14/14/6
f 6/6/7 5/5/7 15/15/7 16/16/7
f 15/15/8 12/12/8 11/11/8 16/16/8
f 17/17/9 18/18/9 3/3/9 2/2/9
f 5/5/10 3/3/10 18/18/10 19/19/10
f 20/20/11 21/21/11 13/13/11 8/8/11
f 17/17/12 2/2/12 13/13/12 21/21/12
f 22/22/13 23/23/13 7/7/13 12/12/13
f 20/20/14 8/8/14 7/7/14 23/23/14
f 5/5/15 19/19/15 24/24/15 15/15/15
f 22/22/16 12/12/16 15/15/16 24/24/16
f 23/23/17 22/22/17 25/25/17 26/26/17
f 20/20/18 23/23/18 26/26/18 27/27/18
f 24/24/19 19/19/19 28/28/19 29/29/19
f 22/22/20 24/24/20 29/29/20 25/25/20
f 17/17/21 30/30/21 31/31/21 18/18/21
f 18/18/22 31/31/22 28/28/22 19/19/22
f 20/20/23 27/27/23 32/32/23 21/21/23
f 21/21/24 32/32/24 30/30/24 17/17/24
f 32/32/25 29/29/25 28/28/25 30/30/25
f 27/27/25 25/25/25 29/29/25 32/32/25
f 30/30/25 28/28/25 31/31/25
f 27/27/25 26/26/25 25/25/25
f 1/1/26 4/4/26 6/6/26 16/16/26 11/11/26 10/10/26 9/9/26 14/14/26
f 33/33/27 34/34/27 35/35/27 36/36/27
f 34/34/28 37/37/28 38/38/28 35/35/28
f 37/37/29 39/39/29 40/40/29 38/38/29
f 39/39/30 41/41/30 42/42/30 40/40/30
f 41/41/31 43/43/31 44/44/31 42/42/31
f 43/43/32 33/33/32 36/36/32 44/44/32
f 42/42/26 44/44/26 45/45/26 46/46/26
f 40/40/26 42/42/26 46/46/26 47/47/26
f 38/38/26 40/40/26 47/47/26 48/48/26
f 35/35/26 38/38/26 48/48/26 49/49/26
f 36/36/26 35/35/26 49/49/26 50/50/26
f 44/44/26 36/36/26 50/50/26 45/45/26
f 46/46/31 45/45/31 51/51/31 52/52/31
f 47/47/30 46/46/30 52/52/30 53/53/30
f 48/48/29 47/47/29 53/53/29 54/54/29
f 49/49/28 48/48/28 54/54/28 55/55/28
f 50/50/27 49/49/27 55/55/27 56/56/27
f 45/45/32 50/50/32 56/56/32 51/51/32
f 57/57/30 58/58/30 59/59/30 60/60/30
f 61/61/25 62/62/25 57/57/25 60/60/25
f 63/63/27 62/62/27 61/61/27 64/64/27
f 58/58/26 63/63/26 64/64/26 59/59/26
f 59/59/33 64/64/33 61/61/33 60/60/33
f 63/63/34 58/58/34 57/57/34 62/62/34
f 65/65/35 66/66/35 67/67/35 68/68/35
f 68/68/36 67/67/36 69/69/36 70/70/36
f 70/70/37 69/69/37 71/71/37 72/72/37
f 72/72/38 71/71/38 66/66/38 65/65/38
f 66/66/33 71/71/33 69/69/33 67/67/33
f 72/72/34 65/65/34 68/68/34 70/70/34
f 73/73/30 74/74/30 75/75/30 76/76/30
f 76/76/25 75/75/25 77/77/25 78/78/25
f 78/78/27 77/77/27 79/79/27 80/80/27
f 80/80/26 79/79/26 74/74/26 73/73/26
f 74/74/33 79/79/33 77/77/33 75/75/33
f 80/80/34 73/73/34 76/76/34 78/78/34
f 81/81/30 82/82/30 83/83/30 84/84/30
f 84/84/25 83/83/25 85/85/25 86/86/25
f 86/86/27 85/85/27 87/87/27 88/88/27
f 88/88/26 87/87/26 82/82/26 81/81/26
f 82/82/33 87/87/33 85/85/33 83/83/33
f 88/88/34 81/81/34 84/84/34 86/86/34
f 89/89/39 90/90/39 91/91/39 92/92/39
f 90/90/40 93/93/40 94/94/40 91/91/40
f 93/93/41 95/95/41 96/96/41 94/94/41
f 95/95/42 97/97/42 98/98/42 96/96/42
f 97/97/43 99/99/43 100/100/43 98/98/43
f 99/99/44 89/89/44 92/92/44 100/100/44
f 97/97/45 95/95/45 93/93/45 90/90/45 89/89/45 99/99/45
f 101/101/39 102/102/39 103/103/39 104/104/39
f 102/102/46 105/105/46 106/106/46 103/103/46
f 105/105/47 107/107/47 108/108/47 106/106/47
f 107/107/42 109/109/42 110/110/42 108/108/42
f 109/109/48 111/111/48 112/112/48 110/110/48
f 111/111/49 101/101/49 104/104/49 112/112/49
f 109/109/45 107/107/45 105/105/45 102/102/45 101/101/45 111/111/45
f 113/113/50 114/114/50 115/115/50 116/116/50
f 114/114/51 117/117/51 118/118/51 115/115/51
f 117/117/52 119/119/52 120/120/52 118/118/52
f 119/119/53 121/121/53 122/122/53 120/120/53
f 121/121/54 123/123/54 124/124/54 122/122/54
f 123/123/55 113/113/55 116/116/55 124/124/55
f 121/121/56 119/119/56 117/117/56 114/114/56 113/113/56 123/123/56
f 125/125/50 126/126/50 127/127/50 128/128/50
f 126/126/51 129/129/51 130/130/51 127/127/51
f 129/129/52 131/131/52 132/132/52 130/130/52
f 131/131/53 133/133/53 134/134/53 132/132/53
f 133/133/57 135/135/57 136/136/57 134/134/57
f 135/135/58 125/125/58 128/128/58 136/136/58
f 133/133/56 131/131/56 129/129/56 126/126/56 125/125/56 135/135/56
f 137/137/59 138/138/59 139/139/59 140/140/59
f 140/140/60 139/139/60 141/141/60 142/142/60
f 142/142/61 141/141/61 143/143/61 144/144/61
f 144/144/62 143/143/62 145/145/62 146/146/62
f 146/146/63 145/145/63 147/147/63 148/148/63
f 148/148/64 147/147/64 138/138/64 137/137/64
f 146/146/65 148/148/65 137/137/65 140/140/65 142/142/65 144/144/65
f 149/149/59 150/150/59 151/151/59 152/152/59
f 152/152/60 151/151/60 153/153/60 154/154/60
f 154/154/61 153/153/61 155/155/61 156/156/61
f 156/156/62 155/155/62 157/157/62 158/158/62
f 158/158/66 157/157/66 159/159/66 160/160/66
f 160/160/67 159/159/67 150/150/67 149/149/67
f 158/158/65 160/160/65 149/149/65 152/152/65 154/154/65 156/156/65
